# xmcd CD database file
#
# Track frame offsets:
#	225
#	15481
#	31416
#	44202
#	57714
#	70771
#	81798
#	95476
#	106662
#	118977
#	130065
#	148868
#	168383
#	183269
#	197384
#	212198
#	234173
#	244928
#	257161
#	274190
#	287463
#	306170
#	318579
#	333617
#
# Disc length: 4681 seconds
#
# Revision: 0
# Processed by: cddbd v1.5.2PL0 Copyright (c) Steve Scherf et al.
# Submitted via: CDex 1.70beta2
#
DISCID=68124618
DTITLE=Slena Jones - The Moment Of Truth and Everybody's Talkin' About Salena Jones
DYEAR=1970
DGENRE=Jazz
TTITLE0=For Once In My Life
TTITLE1=Alone Together
TTITLE2=For Me
TTITLE3=This Girl's In Love
TTITLE4=Just A Couple Of Losers
TTITLE5=The Moment Of Truth
TTITLE6=Right Now
TTITLE7=What Is This Thing Called Love
TTITLE8=If I Should See You Again
TTITLE9=Only You
TTITLE10=Sitting Alone Counting My Tears
TTITLE11=If He Walked Into My Life
TTITLE12=Am I The Same Gilr (Soulful Strut)
TTITLE13=Every Body's Talkin'
TTITLE14=With Out Him
TTITLE15=My Way
TTITLE16=Spinning Wheel
TTITLE17=The More I See You
TTITLE18=Morning Dew
TTITLE19=My Cherie Amour
TTITLE20=Yesterday I Heard The Rain
TTITLE21=On A Clear Day You Can See Forever
TTITLE22=I'll Never Fall In Love Again
TTITLE23=Play It Again, Sam
EXTD=YEAR: 1970
EXTT0=
EXTT1=
EXTT2=
EXTT3=
EXTT4=
EXTT5=
EXTT6=
EXTT7=
EXTT8=
EXTT9=
EXTT10=
EXTT11=
EXTT12=
EXTT13=
EXTT14=
EXTT15=
EXTT16=
EXTT17=
EXTT18=
EXTT19=
EXTT20=
EXTT21=
EXTT22=
EXTT23=
PLAYORDER=
